# xmcd
#
# Track frame offsets:
#	150
#	20671
#	35718
#	51912
#	69624
#	85350
#	99676
#	119898
#	135928
#	156906
#	177439
#	196242
#	217133
#	234638
#
# Disc length: 3360 seconds
#
# Revision: 0
# Processed by: cddbd v1.5.1PL0 Copyright (c) Steve Scherf et al.
# Submitted via: dBpowerAMP V4.0
#
DISCID=d60d1e0e
DTITLE=MARQUINHOS MARAIAL - acustico
DYEAR=2004
DGENRE=FORRÓ
TTITLE0=o encanto
TTITLE1=veneno
TTITLE2=ainda ha tempo
TTITLE3=carta branca
TTITLE4=olho por olho
TTITLE5=viver por voce
TTITLE6=tudo de novo
TTITLE7=estrela dourada
TTITLE8=pra recomeçar
TTITLE9=tatuado
TTITLE10=isso é amor
TTITLE11=o naufrago
TTITLE12=pouco a pouco
TTITLE13=amanhecer
EXTD=
EXTT0=
EXTT1=
EXTT2=
EXTT3=
EXTT4=
EXTT5=
EXTT6=
EXTT7=
EXTT8=
EXTT9=
EXTT10=
EXTT11=
EXTT12=
EXTT13=
PLAYORDER=
